# xmcd
#
# Track frame offsets: 
#        150
#        7325
#        12264
#        16394
#        21605
#        28740
#        37361
#        44641
#        56172
#        61333
#        67667
#        74714
#        82383
#        86678
#
# Disc length: 1246 seconds
#
# Revision: 2
# Processed by: cddbd v1.5.2PL0 Copyright (c) Steve Scherf et al.
# Submitted via: ExactAudioCopy v0.99pb4
#
DISCID=d304dc0e
DTITLE=Raw Power - You are the victim
DYEAR=1900
DGENRE=Hardcore
TTITLE0=Politicians
TTITLE1=Police police
TTITLE2=Corrosive water
TTITLE3=Raw power
TTITLE4=Burning factory
TTITLE5=Hate
TTITLE6=State oppression
TTITLE7=Don`t let me see it
TTITLE8=You are the victim
TTITLE9=Repression
TTITLE10=No card
TTITLE11=Death seller
TTITLE12=Power
TTITLE13=Nihilist
EXTD=
EXTT0=
EXTT1=
EXTT2=
EXTT3=
EXTT4=
EXTT5=
EXTT6=
EXTT7=
EXTT8=
EXTT9=
EXTT10=
EXTT11=
EXTT12=
EXTT13=
PLAYORDER=
